<?xml version="1.0" encoding="UTF-8"?>
<svg width="334px" height="100px" viewBox="0 0 304 68" version="1.1" xmlns="http://www.w3.org/2000/svg" xmlns:xlink="http://www.w3.org/1999/xlink">
    <!-- Generator: Sketch 53.2 (72643) - https://sketchapp.com -->
    <title>Group 22</title>
    <desc>Created with Sketch.</desc>
    <defs>
        <polygon id="path-1" points="0.00017641963 67.2746667 303.749636 67.2746667 303.749636 1.42108547e-14 0.00017641963 1.42108547e-14"></polygon>
    </defs>
    <g id="Page-1" stroke="none" stroke-width="1" fill="none" fill-rule="evenodd">
        <g id="landing-ripleylabs" transform="translate(-149.000000, -194.000000)">
            <g id="Group-22" transform="translate(149.000000, 194.000000)">
                <g id="Group-21">
                    <path d="M86.0889071,26.0053857 L88.7626709,26.0053857 L88.7626709,29.6077667 C88.7626709,30.4982429 88.6828809,31.2268143 88.6828809,31.2268143 L88.7626709,31.2268143 C89.7209491,28.1506238 91.9558678,25.8030048 95.1083717,25.8030048 C95.6669019,25.8030048 96.185537,25.9236238 96.185537,25.9236238 L96.185537,28.6363381 C96.185537,28.6363381 95.7067969,28.5553857 95.1881617,28.5553857 C92.3548179,28.5553857 90.2387864,30.8220524 89.361894,33.8172905 C88.962146,35.1133381 88.8025659,36.488719 88.8025659,37.7847667 L88.8025659,46.365719 L86.0889071,46.365719 L86.0889071,26.0053857 Z" id="Fill-1" fill="#FFFFFF"></path>
                    <mask id="mask-2" fill="white">
                        <use xlink:href="#path-1"></use>
                    </mask>
                    <g id="Clip-4"></g>
                    <path d="M99.0977932,46.3654762 L101.811452,46.3654762 L101.811452,26.0051429 L99.0977932,26.0051429 L99.0977932,46.3654762 Z M99.0172053,21.3495714 L101.851347,21.3495714 L101.851347,17.9090952 L99.0172053,17.9090952 L99.0172053,21.3495714 Z" id="Fill-3" fill="#FFFFFF" mask="url(#mask-2)"></path>
                    <path d="M116.178524,44.4228619 C119.729978,44.4228619 122.64391,41.3871476 122.64391,36.2061952 C122.64391,31.2268143 120.049936,28.0291952 116.297411,28.0291952 C112.945432,28.0291952 109.792928,30.4577667 109.792928,36.2458619 C109.792928,40.3347667 112.027847,44.4228619 116.178524,44.4228619 L116.178524,44.4228619 Z M107.158261,26.0053857 L109.752235,26.0053857 L109.752235,27.988719 C109.752235,28.8791952 109.673243,29.5672905 109.673243,29.5672905 L109.752235,29.5672905 C109.752235,29.5672905 111.388729,25.5188619 116.696361,25.5188619 C122.084582,25.5188619 125.437359,29.8911 125.437359,36.2061952 C125.437359,42.6419095 121.646534,46.8514333 116.457789,46.8514333 C111.628897,46.8514333 109.872718,42.965719 109.872718,42.965719 L109.792928,42.965719 C109.792928,42.965719 109.872718,43.6951 109.872718,44.7466714 L109.872718,54.4617667 L107.158261,54.4617667 L107.158261,26.0053857 Z" id="Fill-5" fill="#FFFFFF" mask="url(#mask-2)"></path>
                    <path d="M129.265923,17.9093381 L131.979582,17.9093381 L131.979582,40.9419095 C131.979582,43.6133381 133.17723,44.0181 134.214501,44.0181 C134.573556,44.0181 134.893514,43.9776238 134.893514,43.9776238 L134.893514,46.4466714 C134.893514,46.4466714 134.413976,46.5284333 133.895341,46.5284333 C132.218952,46.5284333 129.265923,46.0014333 129.265923,41.5490524 L129.265923,17.9093381 Z" id="Fill-6" fill="#FFFFFF" mask="url(#mask-2)"></path>
                    <path d="M152.253111,34.0603095 C152.093531,29.8103095 149.539452,27.8269762 146.54573,27.8269762 C143.193751,27.8269762 140.279819,29.9722143 139.640701,34.0603095 L152.253111,34.0603095 Z M146.62552,25.5190238 C152.172523,25.5190238 155.006665,29.8507857 155.006665,34.911119 C155.006665,35.3960238 154.926875,36.3277857 154.926875,36.3277857 L139.521814,36.3277857 C139.640701,41.5492143 143.153856,44.3825476 147.303735,44.3825476 C150.975672,44.3825476 153.410066,41.9135 153.410066,41.9135 L154.647609,44.0182619 C154.647609,44.0182619 151.734476,46.8515952 147.223945,46.8515952 C141.2373,46.8515952 136.728365,42.4793571 136.728365,36.2055476 C136.728365,29.5269762 141.198203,25.5190238 146.62552,25.5190238 L146.62552,25.5190238 Z" id="Fill-7" fill="#FFFFFF" mask="url(#mask-2)"></path>
                    <path d="M157.039714,51.4666095 C157.039714,51.4666095 158.157573,52.3967524 159.435011,52.3967524 C161.190392,52.3967524 162.427935,50.940419 163.225835,49.0785143 L164.463379,46.2038952 L156.082234,26.0054667 L159.075956,26.0054667 L164.982014,40.8602286 C165.380964,41.8721333 165.700124,43.0062762 165.700124,43.0062762 L165.779914,43.0062762 C165.779914,43.0062762 166.059977,41.8721333 166.458927,40.8602286 L172.246098,26.0054667 L175.199127,26.0054667 L165.301174,50.6158 C164.263903,53.2062762 162.188565,54.8666095 159.514801,54.8666095 C157.439463,54.8666095 156.002444,53.6523238 156.002444,53.6523238 L157.039714,51.4666095 Z" id="Fill-8" fill="#FFFFFF" mask="url(#mask-2)"></path>
                    <polygon id="Fill-9" fill="#FFFFFF" mask="url(#mask-2)" points="178.963301 34.3053524 197.00223 26.1283524 197.00223 28.8410667 182.355973 35.276781 182.355973 35.3585429 197.00223 41.7942571 197.00223 44.5061619 178.963301 36.3291619"></polygon>
                    <polygon id="Fill-10" fill="#FFFFFF" mask="url(#mask-2)" points="210.170217 16.7780286 212.683603 16.7780286 202.586973 48.5137905 200.032895 48.5137905"></polygon>
                    <path d="M215.357287,18.0737524 L220.385655,18.0737524 L220.385655,39.6087048 C220.385655,41.8745619 221.144458,42.4420381 222.460993,42.4420381 C222.859943,42.4420381 223.219796,42.4015619 223.219796,42.4015619 L223.219796,46.894419 C223.219796,46.894419 222.460993,47.0158476 221.623198,47.0158476 C218.829749,47.0158476 215.357287,46.2872762 215.357287,40.3777524 L215.357287,18.0737524 Z" id="Fill-11" fill="#FFFFFF" mask="url(#mask-2)"></path>
                    <path d="M232.237905,43.2915524 C234.911668,43.2915524 236.827427,40.3772667 236.827427,37.8677429 L236.827427,37.3820286 L235.948939,37.3820286 C233.354965,37.3820286 229.164393,37.7463143 229.164393,40.6201238 C229.164393,41.9963143 230.161768,43.2915524 232.237905,43.2915524 M236.109317,33.8606 L236.787532,33.8606 L236.787532,33.5772667 C236.787532,30.8645524 235.111143,29.9336 232.876225,29.9336 C229.962293,29.9336 227.289327,31.9169333 227.289327,31.9169333 L225.372771,28.2336 C225.372771,28.2336 228.526072,25.6836 233.354965,25.6836 C238.70329,25.6836 241.815899,28.6788381 241.815899,33.9002667 L241.815899,46.8137905 L237.146587,46.8137905 L237.146587,45.112981 C237.146587,44.3034571 237.226377,43.6558381 237.226377,43.6558381 L237.146587,43.6558381 C237.186482,43.6558381 235.589884,47.2986952 230.960466,47.2986952 C227.329222,47.2986952 224.056235,44.9923619 224.056235,40.862981 C224.056235,34.3050286 232.796435,33.8606 236.109317,33.8606" id="Fill-12" fill="#FFFFFF" mask="url(#mask-2)"></path>
                    <path d="M255.862455,42.9682286 C258.655903,42.9682286 260.970612,40.6602762 260.970612,36.5729905 C260.970612,32.6459905 258.896071,30.0959905 255.90235,30.0959905 C253.268481,30.0959905 250.793394,32.0388476 250.793394,36.6126571 C250.793394,39.8110857 252.469783,42.9682286 255.862455,42.9682286 L255.862455,42.9682286 Z M245.884712,18.0737524 L250.953772,18.0737524 L250.953772,26.9380381 C250.953772,27.9499429 250.873982,28.6793238 250.873982,28.6793238 L250.953772,28.6793238 C250.953772,28.6793238 252.749846,25.6832762 257.060103,25.6832762 C262.567211,25.6832762 266.079567,30.0959905 266.079567,36.4912286 C266.079567,43.049181 262.128365,47.299181 256.740943,47.299181 C252.510476,47.299181 250.674507,44.2229905 250.674507,44.2229905 L250.593919,44.2229905 C250.593919,44.2229905 250.674507,44.8301333 250.674507,45.6396571 L250.674507,46.8134667 L245.884712,46.8134667 L245.884712,18.0737524 Z" id="Fill-13" fill="#FFFFFF" mask="url(#mask-2)"></path>
                    <path d="M269.669081,40.6606 C269.669081,40.6606 271.904,42.9280762 275.216084,42.9280762 C276.653102,42.9280762 277.890646,42.2796476 277.890646,41.0653619 C277.890646,37.9891714 267.991895,38.3939333 267.991895,31.7550286 C267.991895,27.9097905 271.384567,25.6836 275.774614,25.6836 C280.364137,25.6836 282.599055,28.031219 282.599055,28.031219 L280.723192,31.8367905 C280.723192,31.8367905 278.848126,30.0550286 275.735517,30.0550286 C274.418184,30.0550286 273.141543,30.6225048 273.141543,31.9169333 C273.141543,34.8320286 283.038698,34.4677429 283.038698,41.1058381 C283.038698,44.5471238 280.085669,47.2986952 275.255979,47.2986952 C270.186919,47.2986952 267.354373,44.262981 267.354373,44.262981 L269.669081,40.6606 Z" id="Fill-14" fill="#FFFFFF" mask="url(#mask-2)"></path>
                    <polygon id="Fill-15" fill="#FFFFFF" mask="url(#mask-2)" points="285.710467 41.7942571 300.357522 35.3585429 300.357522 35.276781 285.710467 28.8410667 285.710467 26.1283524 303.749396 34.3053524 303.749396 36.3291619 285.710467 44.5061619"></polygon>
                    <path d="M68.5023874,35.708581 C68.4449386,36.6832476 68.081894,37.6417238 67.4236263,38.5564857 L67.4228284,38.5572952 C65.1918993,41.6480571 59.8435738,44.0499143 52.9018415,45.4042476 C52.4606027,42.3920095 51.7744084,39.2097714 50.8488441,35.9352476 C53.2146184,32.1499143 55.1096315,28.4431048 56.5003717,24.9710571 C57.5472168,25.3693429 58.5645397,25.7846286 59.514041,26.2322952 C65.4208966,29.0154381 68.6970751,32.4696762 68.5023874,35.708581 M48.3577995,28.4026286 C47.5040462,26.1675333 46.5840672,24.0303905 45.6194058,21.9944381 C48.9610121,22.6056286 52.0959622,23.4224381 54.9492536,24.403581 C53.7484137,27.4069143 52.1629859,30.5940095 50.2344609,33.8337238 C49.6775266,32.0373905 49.0551643,30.2248667 48.3577995,28.4026286 M43.090062,46.5343429 C44.2111119,45.2123905 45.3193953,43.8523905 46.394167,42.4284381 C46.7875318,41.9038667 47.1761092,41.3776762 47.5535161,40.8531048 L47.5559098,40.8514857 C48.2971591,39.8201524 49.0048966,38.7904381 49.6791224,37.7663905 C50.3964347,40.4928667 50.9374111,43.1497238 51.306041,45.6794857 C48.7336105,46.1101524 45.9752693,46.4007714 43.090062,46.5343429 M40.9189754,46.5982952 C38.7518783,46.6387714 36.5361092,46.605581 34.2828389,46.4647238 C31.5795528,46.299581 28.9608441,45.9927714 26.4370856,45.5904381 C25.2936945,43.2646762 24.2197208,40.828819 23.2478783,38.2885333 C22.3901355,36.0477714 21.6536735,33.8070095 21.0105659,31.5962 C21.8954373,30.1941048 22.8441407,28.7855333 23.8534846,27.3842476 C24.2245082,26.868581 24.6051066,26.3512952 24.9912903,25.8396762 C26.3485187,24.0344381 27.7552168,22.3101524 29.1914373,20.6813905 C31.3577365,20.6401048 33.5735056,20.6757238 35.825978,20.8149619 C38.5069229,20.9817238 41.1240357,21.2796286 43.6533796,21.6779143 C44.7991643,23.9899143 45.8835108,26.4273905 46.8617365,28.9895333 C47.7194793,31.2311048 48.4591329,33.4694381 49.1030384,35.6818667 C47.8886342,37.6036762 46.5593323,39.5303429 45.1199203,41.4392 C43.7634898,43.2452476 42.3559937,44.9703429 40.9189754,46.5982952 M32.0471224,55.1403905 C30.3970646,52.8178667 28.8108389,50.2120095 27.3387129,47.3932476 C29.5417155,47.7041048 31.8284977,47.9412952 34.1870909,48.0870095 C35.9584294,48.2011524 37.697852,48.2432476 39.4125397,48.2432476 C36.9925082,50.8474857 34.5126342,53.1821524 32.0471224,55.1403905 M27.4791433,58.3671524 C21.90581,61.7890095 17.2564452,62.6236286 14.7119412,60.6516286 C11.6113008,58.2489619 11.7804557,52.0423429 14.5659255,44.4190571 C17.7846552,45.5281048 21.4398363,46.4226286 25.3878468,47.0832 C27.0546604,50.3812 28.8587129,53.4347238 30.7601092,56.1110095 C29.6590069,56.9334857 28.5610961,57.7033429 27.4791433,58.3671524 M19.8759517,33.4443429 C20.4328861,35.2406762 21.0584399,37.0556286 21.754209,38.8762476 C22.5967916,41.0813905 23.5095895,43.2152952 24.4830279,45.2674381 C21.1103035,44.6392476 17.9849281,43.8102952 15.1715318,42.8429143 C16.3731696,39.8492952 17.9562037,36.6719143 19.8759517,33.4443429 M27.0219465,20.7453429 C25.9000987,22.0656762 24.7910174,23.4248667 23.7170436,24.8504381 C23.3236788,25.3733905 22.9366972,25.899581 22.5584924,26.4241524 C21.8156473,27.4562952 21.1087077,28.486819 20.4312903,29.5124857 C19.7171696,26.7819619 19.1737995,24.1267238 18.8043717,21.5977714 C21.3783979,21.1703429 24.1359412,20.8781048 27.0219465,20.7453429 M20.5916683,3.85705714 C21.2507339,2.94148571 22.0382615,2.29872381 22.9319098,1.94658095 C26.6836368,0.468390476 31.9968546,4.13472381 37.0778835,10.8602476 C34.1894846,13.1568667 31.2835318,15.9335333 28.4789124,19.0647714 C24.9841092,19.1554381 21.6528756,19.4630571 18.5809596,19.9722476 C17.7359832,12.8508667 18.3655266,6.95105714 20.5916683,3.85705714 M42.7549439,19.8823905 C40.5359832,19.5666762 38.2507969,19.3335333 35.9241197,19.1902476 C34.153579,19.0817714 32.4133586,19.0323905 30.6970751,19.0340095 C33.1115213,16.4378667 35.5834163,14.1137238 38.0457365,12.1554857 C39.6702615,14.4464381 41.2620725,17.045819 42.7549439,19.8823905 M60.1914583,24.7549143 C59.210041,24.2926762 58.1616,23.8644381 57.0860305,23.4523905 C60.1491696,15.0552 60.114062,8.2349619 56.3711119,5.3344381 C55.9665764,5.02034286 55.5261355,4.76129524 55.0553743,4.55405714 C55.0992588,5.05353333 55.0936735,5.56353333 55.0202667,6.08081905 C55.0075003,6.1674381 54.985957,6.25000952 54.9707969,6.33581905 C55.1184084,6.42405714 55.2620305,6.52039048 55.3976735,6.62562857 C58.5023035,9.02991429 58.3243717,15.2511048 55.5341145,22.8889619 C52.2571381,21.7572476 48.6115318,20.8546286 44.7329386,20.2037714 C43.042188,16.841819 41.2309544,13.8020571 39.3574846,11.1630095 C40.457789,10.344581 41.5533061,9.57310476 42.6320672,8.91010476 C42.8004242,8.80729524 42.9655895,8.71177143 43.1315528,8.61300952 C42.8475003,8.15239048 42.6232903,7.65372381 42.4589229,7.1299619 C42.2402982,7.25786667 42.0224714,7.38415238 41.8006552,7.52015238 C40.6780095,8.21067619 39.5410016,9.00967619 38.4000042,9.85805714 C32.8194898,2.47034286 26.8615685,-1.34332381 22.3526342,0.431152381 C21.1677523,0.897438095 20.1416525,1.72639048 19.298272,2.89858095 C16.8160042,6.34634286 16.0859255,12.659819 16.9931381,20.2563905 C9.58543206,21.6916762 3.88124309,24.3161524 1.39817747,27.7647238 C0.554796892,28.9369143 0.0888231388,30.1811524 0.0114268133,31.4682952 C-0.0492136066,32.4704857 0.132707653,33.4605333 0.528466183,34.4287238 C0.907468808,33.9867238 1.34232445,33.600581 1.81867091,33.2735333 C1.65031395,32.7076762 1.57531133,32.138581 1.61041894,31.5678667 C1.66866566,30.5964381 2.03330608,29.639581 2.6923717,28.7240095 C4.91931133,25.630819 10.2668389,23.2273429 17.2109649,21.8754381 C17.6522037,24.882819 18.3376,28.0682952 19.2623664,31.3420095 C16.9045712,35.1232952 15.0111538,38.822819 13.6188179,42.2867714 C12.9286342,42.0261048 12.2759517,41.7516762 11.6392273,41.471581 C11.4198048,41.9969619 11.1437313,42.4867238 10.810209,42.9295333 C11.5251276,43.2420095 12.2591958,43.5472 13.0243822,43.8394381 C9.95884939,52.2293429 9.9995423,59.0447238 13.7385029,61.942819 C16.8782405,64.3770571 22.0534216,63.6023429 28.3113533,59.7579143 C29.4387864,59.066581 30.5821775,58.2611048 31.7287601,57.4054381 C32.3279832,58.1987714 32.9367811,58.9516286 33.5495685,59.6761524 C33.890272,59.2552 34.2804452,58.879581 34.7145029,58.5614381 C34.1424084,57.8830571 33.5743035,57.1779619 33.0133796,56.4356286 C35.9113533,54.136581 38.8228914,51.3526286 41.633894,48.2149143 C45.1263035,48.1210095 48.4567391,47.812581 51.5318468,47.3074381 C52.3736315,54.4272 51.7488756,60.3310571 49.5227339,63.4234381 C48.8652641,64.3373905 48.0753428,64.9801524 47.1785029,65.3322952 C46.2944294,65.679581 45.2962562,65.7322 44.2174951,65.5152476 C44.0507339,66.0584381 43.8169491,66.5660095 43.5233218,67.0290571 C45.0425239,67.4030571 46.4691696,67.3552952 47.761768,66.8469143 C48.945852,66.3790095 49.9703559,65.5492476 50.8137365,64.3786762 C53.2968021,60.9284857 54.0268809,54.6166286 53.1204662,47.0208667 C60.5289701,45.5872 66.2315633,42.9594857 68.7146289,39.5101048 L68.7154268,39.5092952 C69.5580095,38.3387238 70.025579,37.0944857 70.1037733,35.8081524 C70.3431433,31.8082952 66.8236053,27.8821048 60.1914583,24.7549143" id="Fill-16" fill="#FFFFFF" mask="url(#mask-2)"></path>
                    <path d="M44.9000189,4.59485714 C44.6024021,6.67695238 46.0258562,8.61090476 48.0788536,8.91204762 C50.131851,9.214 52.0372368,7.76980952 52.3340557,5.68771429 C52.6316725,3.604 51.2090163,1.67166667 49.155221,1.36971429 C47.1030216,1.0677619 45.1976357,2.51195238 44.9000189,4.59485714" id="Fill-17" fill="#FFFFFF" mask="url(#mask-2)"></path>
                    <path d="M34.9886615,63.1541095 C34.7221628,65.0241095 35.9996011,66.758919 37.8427507,67.0293 C39.6851024,67.3004905 41.3958006,66.0044429 41.6622993,64.1344429 C41.9295958,62.2644429 40.6521575,60.5296333 38.8090079,60.2584429 C36.9666562,59.9880619 35.255958,61.2841095 34.9886615,63.1541095" id="Fill-18" fill="#FFFFFF" mask="url(#mask-2)"></path>
                    <path d="M1.81340477,38.3008381 C1.51578797,40.3845524 2.94003994,42.3193143 4.99383521,42.6212667 C7.04763049,42.9224095 8.95381421,41.478219 9.25143101,39.3945048 C9.54904781,37.309981 8.12559374,35.3760286 6.07100057,35.0740762 C4.01720529,34.7729333 2.11102156,36.2171238 1.81340477,38.3008381" id="Fill-19" fill="#FFFFFF" mask="url(#mask-2)"></path>
                    <path d="M42.5569848,41.2360905 C42.5569848,41.136519 42.4325124,41.1065667 42.4325124,41.1065667 C41.1925754,40.8734238 40.0340242,39.997519 39.1579297,39.0665667 C37.7256987,37.5438524 36.5208693,35.608281 36.0556935,34.7032333 C35.9168588,34.3778048 36.1147381,34.3429952 36.1147381,34.3429952 L36.1123444,34.3397571 C38.5291843,33.3958524 38.9289323,30.9462333 38.9289323,30.2767571 C38.9289323,27.1689952 36.0301607,26.2509952 33.419431,26.2509952 C32.4332263,26.2509952 32.1044914,26.3351857 31.0767958,26.3351857 C29.8847329,26.3351857 29.1658247,26.2509952 28.9807119,26.2509952 C28.8155465,26.2509952 28.7126174,26.397519 28.7126174,26.5650905 C28.7126174,27.3163286 30.3977827,26.0421381 30.3977827,28.5459952 L30.3977827,38.5339 C30.3977827,40.8483286 28.7948011,40.2023286 28.7948011,40.7649476 C28.7948011,40.9527571 29.0006594,41.0159 29.123536,41.0159 C29.7203654,41.0159 30.3977827,40.932519 31.3640399,40.932519 C32.5768483,40.932519 32.8856357,41.0159 33.5845964,41.0159 C34.0976462,41.0159 34.17983,40.9114714 34.17983,40.7649476 C34.17983,40.0566143 32.0223077,41.1405667 32.0223077,38.1380429 L32.0223077,27.6069476 C32.0223077,26.9819952 32.4747171,26.9819952 33.1329848,26.9819952 C35.4955675,26.9819952 37.3666436,28.3160905 37.4073365,30.8393762 C37.435263,32.5499 36.1737827,34.1729952 34.0776987,34.1729952 C33.3372473,34.1729952 33.499221,34.1300905 33.3356515,34.1300905 C33.2327224,34.1300905 33.1297932,34.1713762 33.1297932,34.3170905 C33.1297932,34.5073286 33.2813943,34.6069 33.4601239,34.6587095 C33.691515,34.7599 34.219725,34.8457095 34.7710741,35.7054238 L34.7734678,35.7046143 C36.1737827,38.0336143 37.7512315,41.5226619 41.3465701,41.5226619 C42.69183,41.5226619 42.5569848,41.3591381 42.5569848,41.2360905" id="Fill-20" fill="#FFFFFF" mask="url(#mask-2)"></path>
                </g>
            </g>
        </g>
    </g>
</svg>